<?xml version="1.0" encoding="UTF-8"?>
<svg xmlns="http://www.w3.org/2000/svg" xmlns:xlink="http://www.w3.org/1999/xlink" width="600pt" height="600pt" viewBox="0 0 600 600" version="1.1">
<g id="surface1">
<path style="fill:none;stroke-width:1.5;stroke-linecap:butt;stroke-linejoin:miter;stroke:rgb(0%,0%,0%);stroke-opacity:0.2;stroke-miterlimit:10;" d="M 29.25 0 L 29.25 600 "/>
<path style="fill:none;stroke-width:1.5;stroke-linecap:butt;stroke-linejoin:miter;stroke:rgb(0%,0%,0%);stroke-opacity:0.2;stroke-miterlimit:10;" d="M 59.25 0 L 59.25 600 "/>
<path style="fill:none;stroke-width:1.5;stroke-linecap:butt;stroke-linejoin:miter;stroke:rgb(0%,0%,0%);stroke-opacity:0.2;stroke-miterlimit:10;" d="M 89.25 0 L 89.25 600 "/>
<path style="fill:none;stroke-width:1.5;stroke-linecap:butt;stroke-linejoin:miter;stroke:rgb(0%,0%,0%);stroke-opacity:0.2;stroke-miterlimit:10;" d="M 119.25 0 L 119.25 600 "/>
<path style="fill:none;stroke-width:1.5;stroke-linecap:butt;stroke-linejoin:miter;stroke:rgb(0%,0%,0%);stroke-opacity:0.2;stroke-miterlimit:10;" d="M 149.25 0 L 149.25 600 "/>
<path style="fill:none;stroke-width:1.5;stroke-linecap:butt;stroke-linejoin:miter;stroke:rgb(0%,0%,0%);stroke-opacity:0.2;stroke-miterlimit:10;" d="M 179.25 0 L 179.25 600 "/>
<path style="fill:none;stroke-width:1.5;stroke-linecap:butt;stroke-linejoin:miter;stroke:rgb(0%,0%,0%);stroke-opacity:0.2;stroke-miterlimit:10;" d="M 209.25 0 L 209.25 600 "/>
<path style="fill:none;stroke-width:1.5;stroke-linecap:butt;stroke-linejoin:miter;stroke:rgb(0%,0%,0%);stroke-opacity:0.2;stroke-miterlimit:10;" d="M 239.25 0 L 239.25 600 "/>
<path style="fill:none;stroke-width:1.5;stroke-linecap:butt;stroke-linejoin:miter;stroke:rgb(0%,0%,0%);stroke-opacity:0.2;stroke-miterlimit:10;" d="M 269.25 0 L 269.25 600 "/>
<path style="fill:none;stroke-width:1.5;stroke-linecap:butt;stroke-linejoin:miter;stroke:rgb(0%,0%,0%);stroke-opacity:0.2;stroke-miterlimit:10;" d="M 329.25 0 L 329.25 600 "/>
<path style="fill:none;stroke-width:1.5;stroke-linecap:butt;stroke-linejoin:miter;stroke:rgb(0%,0%,0%);stroke-opacity:0.2;stroke-miterlimit:10;" d="M 359.25 0 L 359.25 600 "/>
<path style="fill:none;stroke-width:1.5;stroke-linecap:butt;stroke-linejoin:miter;stroke:rgb(0%,0%,0%);stroke-opacity:0.2;stroke-miterlimit:10;" d="M 389.25 0 L 389.25 600 "/>
<path style="fill:none;stroke-width:1.5;stroke-linecap:butt;stroke-linejoin:miter;stroke:rgb(0%,0%,0%);stroke-opacity:0.2;stroke-miterlimit:10;" d="M 419.25 0 L 419.25 600 "/>
<path style="fill:none;stroke-width:1.5;stroke-linecap:butt;stroke-linejoin:miter;stroke:rgb(0%,0%,0%);stroke-opacity:0.2;stroke-miterlimit:10;" d="M 449.25 0 L 449.25 600 "/>
<path style="fill:none;stroke-width:1.5;stroke-linecap:butt;stroke-linejoin:miter;stroke:rgb(0%,0%,0%);stroke-opacity:0.2;stroke-miterlimit:10;" d="M 479.25 88.5 L 479.25 600 "/>
<path style="fill:none;stroke-width:1.5;stroke-linecap:butt;stroke-linejoin:miter;stroke:rgb(0%,0%,0%);stroke-opacity:0.2;stroke-miterlimit:10;" d="M 509.25 0 L 509.25 600 "/>
<path style="fill:none;stroke-width:1.5;stroke-linecap:butt;stroke-linejoin:miter;stroke:rgb(0%,0%,0%);stroke-opacity:0.2;stroke-miterlimit:10;" d="M 539.25 238.5 L 539.25 600 "/>
<path style="fill:none;stroke-width:1.5;stroke-linecap:butt;stroke-linejoin:miter;stroke:rgb(0%,0%,0%);stroke-opacity:0.2;stroke-miterlimit:10;" d="M 569.25 0 L 569.25 600 "/>
<path style="fill:none;stroke-width:1.5;stroke-linecap:butt;stroke-linejoin:miter;stroke:rgb(0%,0%,0%);stroke-opacity:0.2;stroke-miterlimit:10;" d="M 0 569.25 L 600 569.25 "/>
<path style="fill:none;stroke-width:1.5;stroke-linecap:butt;stroke-linejoin:miter;stroke:rgb(0%,0%,0%);stroke-opacity:0.2;stroke-miterlimit:10;" d="M 0 539.25 L 600 539.25 "/>
<path style="fill:none;stroke-width:1.5;stroke-linecap:butt;stroke-linejoin:miter;stroke:rgb(0%,0%,0%);stroke-opacity:0.2;stroke-miterlimit:10;" d="M 0 509.25 L 600 509.25 "/>
<path style="fill:none;stroke-width:1.5;stroke-linecap:butt;stroke-linejoin:miter;stroke:rgb(0%,0%,0%);stroke-opacity:0.2;stroke-miterlimit:10;" d="M 0 479.25 L 600 479.25 "/>
<path style="fill:none;stroke-width:1.5;stroke-linecap:butt;stroke-linejoin:miter;stroke:rgb(0%,0%,0%);stroke-opacity:0.2;stroke-miterlimit:10;" d="M 0 449.25 L 600 449.25 "/>
<path style="fill:none;stroke-width:1.5;stroke-linecap:butt;stroke-linejoin:miter;stroke:rgb(0%,0%,0%);stroke-opacity:0.2;stroke-miterlimit:10;" d="M 0 419.25 L 600 419.25 "/>
<path style="fill:none;stroke-width:1.5;stroke-linecap:butt;stroke-linejoin:miter;stroke:rgb(0%,0%,0%);stroke-opacity:0.2;stroke-miterlimit:10;" d="M 0 389.25 L 600 389.25 "/>
<path style="fill:none;stroke-width:1.5;stroke-linecap:butt;stroke-linejoin:miter;stroke:rgb(0%,0%,0%);stroke-opacity:0.2;stroke-miterlimit:10;" d="M 0 359.25 L 600 359.25 "/>
<path style="fill:none;stroke-width:1.5;stroke-linecap:butt;stroke-linejoin:miter;stroke:rgb(0%,0%,0%);stroke-opacity:0.2;stroke-miterlimit:10;" d="M 0 329.25 L 600 329.25 "/>
<path style="fill:none;stroke-width:1.5;stroke-linecap:butt;stroke-linejoin:miter;stroke:rgb(0%,0%,0%);stroke-opacity:0.2;stroke-miterlimit:10;" d="M 0 269.25 L 600 269.25 "/>
<path style="fill:none;stroke-width:1.5;stroke-linecap:butt;stroke-linejoin:miter;stroke:rgb(0%,0%,0%);stroke-opacity:0.2;stroke-miterlimit:10;" d="M 0 239.25 L 600 239.25 "/>
<path style="fill:none;stroke-width:1.5;stroke-linecap:butt;stroke-linejoin:miter;stroke:rgb(0%,0%,0%);stroke-opacity:0.2;stroke-miterlimit:10;" d="M 0 209.25 L 600 209.25 "/>
<path style="fill:none;stroke-width:1.5;stroke-linecap:butt;stroke-linejoin:miter;stroke:rgb(0%,0%,0%);stroke-opacity:0.2;stroke-miterlimit:10;" d="M 0 179.25 L 600 179.25 "/>
<path style="fill:none;stroke-width:1.5;stroke-linecap:butt;stroke-linejoin:miter;stroke:rgb(0%,0%,0%);stroke-opacity:0.2;stroke-miterlimit:10;" d="M 0 149.25 L 600 149.25 "/>
<path style="fill:none;stroke-width:1.5;stroke-linecap:butt;stroke-linejoin:miter;stroke:rgb(0%,0%,0%);stroke-opacity:0.2;stroke-miterlimit:10;" d="M 0 119.25 L 600 119.25 "/>
<path style="fill:none;stroke-width:1.5;stroke-linecap:butt;stroke-linejoin:miter;stroke:rgb(0%,0%,0%);stroke-opacity:0.2;stroke-miterlimit:10;" d="M 0 89.25 L 600 89.25 "/>
<path style="fill:none;stroke-width:1.5;stroke-linecap:butt;stroke-linejoin:miter;stroke:rgb(0%,0%,0%);stroke-opacity:0.2;stroke-miterlimit:10;" d="M 0 59.25 L 600 59.25 "/>
<path style="fill:none;stroke-width:1.5;stroke-linecap:butt;stroke-linejoin:miter;stroke:rgb(0%,0%,0%);stroke-opacity:0.2;stroke-miterlimit:10;" d="M 0 29.25 L 600 29.25 "/>
<path style="fill:none;stroke-width:1.5;stroke-linecap:butt;stroke-linejoin:miter;stroke:rgb(0%,0%,0%);stroke-opacity:0.25;stroke-miterlimit:10;" d="M 59.25 0 L 59.25 600 "/>
<path style="fill:none;stroke-width:1.5;stroke-linecap:butt;stroke-linejoin:miter;stroke:rgb(0%,0%,0%);stroke-opacity:0.25;stroke-miterlimit:10;" d="M 179.25 0 L 179.25 600 "/>
<path style="fill:none;stroke-width:1.5;stroke-linecap:butt;stroke-linejoin:miter;stroke:rgb(0%,0%,0%);stroke-opacity:0.25;stroke-miterlimit:10;" d="M 419.25 0 L 419.25 600 "/>
<path style="fill:none;stroke-width:1.5;stroke-linecap:butt;stroke-linejoin:miter;stroke:rgb(0%,0%,0%);stroke-opacity:0.25;stroke-miterlimit:10;" d="M 539.25 238.5 L 539.25 600 "/>
<path style="fill:none;stroke-width:1.5;stroke-linecap:butt;stroke-linejoin:miter;stroke:rgb(0%,0%,0%);stroke-opacity:0.25;stroke-miterlimit:10;" d="M 0 539.25 L 600 539.25 "/>
<path style="fill:none;stroke-width:1.5;stroke-linecap:butt;stroke-linejoin:miter;stroke:rgb(0%,0%,0%);stroke-opacity:0.25;stroke-miterlimit:10;" d="M 0 419.25 L 600 419.25 "/>
<path style="fill:none;stroke-width:1.5;stroke-linecap:butt;stroke-linejoin:miter;stroke:rgb(0%,0%,0%);stroke-opacity:0.25;stroke-miterlimit:10;" d="M 0 179.25 L 600 179.25 "/>
<path style="fill:none;stroke-width:1.5;stroke-linecap:butt;stroke-linejoin:miter;stroke:rgb(0%,0%,0%);stroke-opacity:0.25;stroke-miterlimit:10;" d="M 0 59.25 L 600 59.25 "/>
<path style="fill:none;stroke-width:1.5;stroke-linecap:butt;stroke-linejoin:miter;stroke:rgb(0%,0%,0%);stroke-opacity:0.2;stroke-miterlimit:10;" d="M 479.25 0 L 479.25 60 "/>
<path style="fill:none;stroke-width:1.5;stroke-linecap:butt;stroke-linejoin:miter;stroke:rgb(0%,0%,0%);stroke-opacity:0.2;stroke-miterlimit:10;" d="M 539.25 0 L 539.25 210 "/>
<path style="fill:none;stroke-width:1.5;stroke-linecap:butt;stroke-linejoin:miter;stroke:rgb(0%,0%,0%);stroke-opacity:0.25;stroke-miterlimit:10;" d="M 539.25 0 L 539.25 210 "/>
<path style="fill:none;stroke-width:2.25;stroke-linecap:butt;stroke-linejoin:miter;stroke:rgb(0%,0%,0%);stroke-opacity:0.9;stroke-miterlimit:10;" d="M 300 0 L 300 600 "/>
<path style="fill:none;stroke-width:2.25;stroke-linecap:butt;stroke-linejoin:miter;stroke:rgb(0%,0%,0%);stroke-opacity:0.9;stroke-miterlimit:10;" d="M 0 300 L 600 300 "/>
<path style="fill:none;stroke-width:4.5;stroke-linecap:butt;stroke-linejoin:miter;stroke:rgb(100%,100%,100%);stroke-opacity:1;stroke-miterlimit:2;" d="M 291.683594 316.476562 C 291.683594 318.894531 291.253906 320.738281 290.402344 322.007812 C 289.558594 323.28125 288.300781 323.914062 286.636719 323.914062 C 284.980469 323.914062 283.734375 323.285156 282.902344 322.023438 C 282.066406 320.753906 281.652344 318.90625 281.652344 316.476562 C 281.652344 314 282.050781 312.144531 282.855469 310.914062 C 283.667969 309.675781 284.949219 309.054688 286.699219 309.054688 C 288.394531 309.054688 289.652344 309.679688 290.464844 310.929688 C 291.277344 312.179688 291.683594 314.03125 291.683594 316.476562 Z M 289.808594 316.476562 C 289.808594 314.394531 289.5625 312.882812 289.074219 311.945312 C 288.59375 311.007812 287.800781 310.539062 286.699219 310.539062 C 285.5625 310.539062 284.746094 311.003906 284.246094 311.929688 C 283.753906 312.859375 283.511719 314.375 283.511719 316.476562 C 283.511719 318.53125 283.761719 320.035156 284.261719 320.992188 C 284.761719 321.941406 285.558594 322.414062 286.652344 322.414062 C 287.746094 322.414062 288.542969 321.929688 289.042969 320.960938 C 289.550781 319.984375 289.808594 318.488281 289.808594 316.476562 Z M 289.808594 316.476562 "/>
<path style=" stroke:none;fill-rule:nonzero;fill:rgb(0%,0%,0%);fill-opacity:1;" d="M 291.683594 316.476562 C 291.683594 318.894531 291.253906 320.738281 290.402344 322.007812 C 289.558594 323.28125 288.300781 323.914062 286.636719 323.914062 C 284.980469 323.914062 283.734375 323.285156 282.902344 322.023438 C 282.066406 320.753906 281.652344 318.90625 281.652344 316.476562 C 281.652344 314 282.050781 312.144531 282.855469 310.914062 C 283.667969 309.675781 284.949219 309.054688 286.699219 309.054688 C 288.394531 309.054688 289.652344 309.679688 290.464844 310.929688 C 291.277344 312.179688 291.683594 314.03125 291.683594 316.476562 Z M 289.808594 316.476562 C 289.808594 314.394531 289.5625 312.882812 289.074219 311.945312 C 288.59375 311.007812 287.800781 310.539062 286.699219 310.539062 C 285.5625 310.539062 284.746094 311.003906 284.246094 311.929688 C 283.753906 312.859375 283.511719 314.375 283.511719 316.476562 C 283.511719 318.53125 283.761719 320.035156 284.261719 320.992188 C 284.761719 321.941406 285.558594 322.414062 286.652344 322.414062 C 287.746094 322.414062 288.542969 321.929688 289.042969 320.960938 C 289.550781 319.984375 289.808594 318.488281 289.808594 316.476562 Z M 289.808594 316.476562 "/>
<path style="fill:none;stroke-width:4.5;stroke-linecap:butt;stroke-linejoin:miter;stroke:rgb(100%,100%,100%);stroke-opacity:1;stroke-miterlimit:2;" d="M 48.101562 317.304688 L 53.226562 317.304688 L 53.226562 318.945312 L 48.101562 318.945312 Z M 48.101562 317.304688 "/>
<path style="fill:none;stroke-width:4.5;stroke-linecap:butt;stroke-linejoin:miter;stroke:rgb(100%,100%,100%);stroke-opacity:1;stroke-miterlimit:2;" d="M 63.1875 320.445312 L 63.1875 323.710938 L 61.453125 323.710938 L 61.453125 320.445312 L 54.640625 320.445312 L 54.640625 319.007812 L 61.25 309.257812 L 63.1875 309.257812 L 63.1875 318.976562 L 65.21875 318.976562 L 65.21875 320.445312 Z M 61.453125 311.351562 C 61.429688 311.382812 61.332031 311.5625 61.15625 311.882812 C 60.976562 312.207031 60.847656 312.4375 60.765625 312.570312 L 57.0625 318.023438 L 56.5 318.773438 L 56.34375 318.976562 L 61.453125 318.976562 Z M 61.453125 311.351562 "/>
<path style=" stroke:none;fill-rule:nonzero;fill:rgb(0%,0%,0%);fill-opacity:1;" d="M 48.101562 317.304688 L 53.226562 317.304688 L 53.226562 318.945312 L 48.101562 318.945312 Z M 48.101562 317.304688 "/>
<path style=" stroke:none;fill-rule:nonzero;fill:rgb(0%,0%,0%);fill-opacity:1;" d="M 63.1875 320.445312 L 63.1875 323.710938 L 61.453125 323.710938 L 61.453125 320.445312 L 54.640625 320.445312 L 54.640625 319.007812 L 61.25 309.257812 L 63.1875 309.257812 L 63.1875 318.976562 L 65.21875 318.976562 L 65.21875 320.445312 Z M 61.453125 311.351562 C 61.429688 311.382812 61.332031 311.5625 61.15625 311.882812 C 60.976562 312.207031 60.847656 312.4375 60.765625 312.570312 L 57.0625 318.023438 L 56.5 318.773438 L 56.34375 318.976562 L 61.453125 318.976562 Z M 61.453125 311.351562 "/>
<path style="fill:none;stroke-width:4.5;stroke-linecap:butt;stroke-linejoin:miter;stroke:rgb(100%,100%,100%);stroke-opacity:1;stroke-miterlimit:2;" d="M 168.101562 317.304688 L 173.226562 317.304688 L 173.226562 318.945312 L 168.101562 318.945312 Z M 168.101562 317.304688 "/>
<path style="fill:none;stroke-width:4.5;stroke-linecap:butt;stroke-linejoin:miter;stroke:rgb(100%,100%,100%);stroke-opacity:1;stroke-miterlimit:2;" d="M 175.21875 323.710938 L 175.21875 322.414062 C 175.5625 321.613281 175.984375 320.90625 176.484375 320.289062 C 176.992188 319.675781 177.523438 319.125 178.078125 318.632812 C 178.628906 318.132812 179.175781 317.675781 179.71875 317.257812 C 180.257812 316.832031 180.75 316.40625 181.1875 315.976562 C 181.625 315.550781 181.976562 315.109375 182.25 314.648438 C 182.519531 314.179688 182.65625 313.65625 182.65625 313.070312 C 182.65625 312.28125 182.421875 311.664062 181.953125 311.226562 C 181.492188 310.789062 180.847656 310.570312 180.015625 310.570312 C 179.234375 310.570312 178.585938 310.785156 178.078125 311.210938 C 177.566406 311.640625 177.269531 312.238281 177.1875 313.007812 L 175.296875 312.835938 C 175.429688 311.679688 175.921875 310.765625 176.765625 310.085938 C 177.609375 309.398438 178.691406 309.054688 180.015625 309.054688 C 181.472656 309.054688 182.59375 309.398438 183.375 310.085938 C 184.15625 310.765625 184.546875 311.738281 184.546875 313.007812 C 184.546875 313.570312 184.414062 314.128906 184.15625 314.679688 C 183.90625 315.234375 183.523438 315.785156 183.015625 316.335938 C 182.515625 316.890625 181.550781 317.75 180.125 318.914062 C 179.332031 319.5625 178.703125 320.144531 178.234375 320.664062 C 177.773438 321.175781 177.445312 321.671875 177.25 322.148438 L 184.78125 322.148438 L 184.78125 323.710938 Z M 175.21875 323.710938 "/>
<path style=" stroke:none;fill-rule:nonzero;fill:rgb(0%,0%,0%);fill-opacity:1;" d="M 168.101562 317.304688 L 173.226562 317.304688 L 173.226562 318.945312 L 168.101562 318.945312 Z M 168.101562 317.304688 "/>
<path style=" stroke:none;fill-rule:nonzero;fill:rgb(0%,0%,0%);fill-opacity:1;" d="M 175.21875 323.710938 L 175.21875 322.414062 C 175.5625 321.613281 175.984375 320.90625 176.484375 320.289062 C 176.992188 319.675781 177.523438 319.125 178.078125 318.632812 C 178.628906 318.132812 179.175781 317.675781 179.71875 317.257812 C 180.257812 316.832031 180.75 316.40625 181.1875 315.976562 C 181.625 315.550781 181.976562 315.109375 182.25 314.648438 C 182.519531 314.179688 182.65625 313.65625 182.65625 313.070312 C 182.65625 312.28125 182.421875 311.664062 181.953125 311.226562 C 181.492188 310.789062 180.847656 310.570312 180.015625 310.570312 C 179.234375 310.570312 178.585938 310.785156 178.078125 311.210938 C 177.566406 311.640625 177.269531 312.238281 177.1875 313.007812 L 175.296875 312.835938 C 175.429688 311.679688 175.921875 310.765625 176.765625 310.085938 C 177.609375 309.398438 178.691406 309.054688 180.015625 309.054688 C 181.472656 309.054688 182.59375 309.398438 183.375 310.085938 C 184.15625 310.765625 184.546875 311.738281 184.546875 313.007812 C 184.546875 313.570312 184.414062 314.128906 184.15625 314.679688 C 183.90625 315.234375 183.523438 315.785156 183.015625 316.335938 C 182.515625 316.890625 181.550781 317.75 180.125 318.914062 C 179.332031 319.5625 178.703125 320.144531 178.234375 320.664062 C 177.773438 321.175781 177.445312 321.671875 177.25 322.148438 L 184.78125 322.148438 L 184.78125 323.710938 Z M 175.21875 323.710938 "/>
<path style="fill:none;stroke-width:4.5;stroke-linecap:butt;stroke-linejoin:miter;stroke:rgb(100%,100%,100%);stroke-opacity:1;stroke-miterlimit:2;" d="M 415.222656 323.710938 L 415.222656 322.414062 C 415.566406 321.613281 415.988281 320.90625 416.488281 320.289062 C 416.996094 319.675781 417.527344 319.125 418.082031 318.632812 C 418.632812 318.132812 419.179688 317.675781 419.722656 317.257812 C 420.261719 316.832031 420.753906 316.40625 421.191406 315.976562 C 421.628906 315.550781 421.980469 315.109375 422.253906 314.648438 C 422.523438 314.179688 422.660156 313.65625 422.660156 313.070312 C 422.660156 312.28125 422.425781 311.664062 421.957031 311.226562 C 421.496094 310.789062 420.851562 310.570312 420.019531 310.570312 C 419.238281 310.570312 418.589844 310.785156 418.082031 311.210938 C 417.570312 311.640625 417.273438 312.238281 417.191406 313.007812 L 415.300781 312.835938 C 415.433594 311.679688 415.925781 310.765625 416.769531 310.085938 C 417.613281 309.398438 418.695312 309.054688 420.019531 309.054688 C 421.476562 309.054688 422.597656 309.398438 423.378906 310.085938 C 424.160156 310.765625 424.550781 311.738281 424.550781 313.007812 C 424.550781 313.570312 424.417969 314.128906 424.160156 314.679688 C 423.910156 315.234375 423.527344 315.785156 423.019531 316.335938 C 422.519531 316.890625 421.554688 317.75 420.128906 318.914062 C 419.335938 319.5625 418.707031 320.144531 418.238281 320.664062 C 417.777344 321.175781 417.449219 321.671875 417.253906 322.148438 L 424.785156 322.148438 L 424.785156 323.710938 Z M 415.222656 323.710938 "/>
<path style=" stroke:none;fill-rule:nonzero;fill:rgb(0%,0%,0%);fill-opacity:1;" d="M 415.222656 323.710938 L 415.222656 322.414062 C 415.566406 321.613281 415.988281 320.90625 416.488281 320.289062 C 416.996094 319.675781 417.527344 319.125 418.082031 318.632812 C 418.632812 318.132812 419.179688 317.675781 419.722656 317.257812 C 420.261719 316.832031 420.753906 316.40625 421.191406 315.976562 C 421.628906 315.550781 421.980469 315.109375 422.253906 314.648438 C 422.523438 314.179688 422.660156 313.65625 422.660156 313.070312 C 422.660156 312.28125 422.425781 311.664062 421.957031 311.226562 C 421.496094 310.789062 420.851562 310.570312 420.019531 310.570312 C 419.238281 310.570312 418.589844 310.785156 418.082031 311.210938 C 417.570312 311.640625 417.273438 312.238281 417.191406 313.007812 L 415.300781 312.835938 C 415.433594 311.679688 415.925781 310.765625 416.769531 310.085938 C 417.613281 309.398438 418.695312 309.054688 420.019531 309.054688 C 421.476562 309.054688 422.597656 309.398438 423.378906 310.085938 C 424.160156 310.765625 424.550781 311.738281 424.550781 313.007812 C 424.550781 313.570312 424.417969 314.128906 424.160156 314.679688 C 423.910156 315.234375 423.527344 315.785156 423.019531 316.335938 C 422.519531 316.890625 421.554688 317.75 420.128906 318.914062 C 419.335938 319.5625 418.707031 320.144531 418.238281 320.664062 C 417.777344 321.175781 417.449219 321.671875 417.253906 322.148438 L 424.785156 322.148438 L 424.785156 323.710938 Z M 415.222656 323.710938 "/>
<path style="fill:none;stroke-width:4.5;stroke-linecap:butt;stroke-linejoin:miter;stroke:rgb(100%,100%,100%);stroke-opacity:1;stroke-miterlimit:2;" d="M 543.191406 320.445312 L 543.191406 323.710938 L 541.457031 323.710938 L 541.457031 320.445312 L 534.644531 320.445312 L 534.644531 319.007812 L 541.253906 309.257812 L 543.191406 309.257812 L 543.191406 318.976562 L 545.222656 318.976562 L 545.222656 320.445312 Z M 541.457031 311.351562 C 541.433594 311.382812 541.335938 311.5625 541.160156 311.882812 C 540.980469 312.207031 540.851562 312.4375 540.769531 312.570312 L 537.066406 318.023438 L 536.503906 318.773438 L 536.347656 318.976562 L 541.457031 318.976562 Z M 541.457031 311.351562 "/>
<path style=" stroke:none;fill-rule:nonzero;fill:rgb(0%,0%,0%);fill-opacity:1;" d="M 543.191406 320.445312 L 543.191406 323.710938 L 541.457031 323.710938 L 541.457031 320.445312 L 534.644531 320.445312 L 534.644531 319.007812 L 541.253906 309.257812 L 543.191406 309.257812 L 543.191406 318.976562 L 545.222656 318.976562 L 545.222656 320.445312 Z M 541.457031 311.351562 C 541.433594 311.382812 541.335938 311.5625 541.160156 311.882812 C 540.980469 312.207031 540.851562 312.4375 540.769531 312.570312 L 537.066406 318.023438 L 536.503906 318.773438 L 536.347656 318.976562 L 541.457031 318.976562 Z M 541.457031 311.351562 "/>
<path style="fill:none;stroke-width:4.5;stroke-linecap:butt;stroke-linejoin:miter;stroke:rgb(100%,100%,100%);stroke-opacity:1;stroke-miterlimit:2;" d="M 274.765625 539.304688 L 279.890625 539.304688 L 279.890625 540.945312 L 274.765625 540.945312 Z M 274.765625 539.304688 "/>
<path style="fill:none;stroke-width:4.5;stroke-linecap:butt;stroke-linejoin:miter;stroke:rgb(100%,100%,100%);stroke-opacity:1;stroke-miterlimit:2;" d="M 289.851562 542.445312 L 289.851562 545.710938 L 288.117188 545.710938 L 288.117188 542.445312 L 281.304688 542.445312 L 281.304688 541.007812 L 287.914062 531.257812 L 289.851562 531.257812 L 289.851562 540.976562 L 291.882812 540.976562 L 291.882812 542.445312 Z M 288.117188 533.351562 C 288.09375 533.382812 287.996094 533.5625 287.820312 533.882812 C 287.640625 534.207031 287.511719 534.4375 287.429688 534.570312 L 283.726562 540.023438 L 283.164062 540.773438 L 283.007812 540.976562 L 288.117188 540.976562 Z M 288.117188 533.351562 "/>
<path style=" stroke:none;fill-rule:nonzero;fill:rgb(0%,0%,0%);fill-opacity:1;" d="M 274.765625 539.304688 L 279.890625 539.304688 L 279.890625 540.945312 L 274.765625 540.945312 Z M 274.765625 539.304688 "/>
<path style=" stroke:none;fill-rule:nonzero;fill:rgb(0%,0%,0%);fill-opacity:1;" d="M 289.851562 542.445312 L 289.851562 545.710938 L 288.117188 545.710938 L 288.117188 542.445312 L 281.304688 542.445312 L 281.304688 541.007812 L 287.914062 531.257812 L 289.851562 531.257812 L 289.851562 540.976562 L 291.882812 540.976562 L 291.882812 542.445312 Z M 288.117188 533.351562 C 288.09375 533.382812 287.996094 533.5625 287.820312 533.882812 C 287.640625 534.207031 287.511719 534.4375 287.429688 534.570312 L 283.726562 540.023438 L 283.164062 540.773438 L 283.007812 540.976562 L 288.117188 540.976562 Z M 288.117188 533.351562 "/>
<path style="fill:none;stroke-width:4.5;stroke-linecap:butt;stroke-linejoin:miter;stroke:rgb(100%,100%,100%);stroke-opacity:1;stroke-miterlimit:2;" d="M 274.765625 419.304688 L 279.890625 419.304688 L 279.890625 420.945312 L 274.765625 420.945312 Z M 274.765625 419.304688 "/>
<path style="fill:none;stroke-width:4.5;stroke-linecap:butt;stroke-linejoin:miter;stroke:rgb(100%,100%,100%);stroke-opacity:1;stroke-miterlimit:2;" d="M 281.882812 425.710938 L 281.882812 424.414062 C 282.226562 423.613281 282.648438 422.90625 283.148438 422.289062 C 283.65625 421.675781 284.1875 421.125 284.742188 420.632812 C 285.292969 420.132812 285.839844 419.675781 286.382812 419.257812 C 286.921875 418.832031 287.414062 418.40625 287.851562 417.976562 C 288.289062 417.550781 288.640625 417.109375 288.914062 416.648438 C 289.183594 416.179688 289.320312 415.65625 289.320312 415.070312 C 289.320312 414.28125 289.085938 413.664062 288.617188 413.226562 C 288.15625 412.789062 287.511719 412.570312 286.679688 412.570312 C 285.898438 412.570312 285.25 412.785156 284.742188 413.210938 C 284.230469 413.640625 283.933594 414.238281 283.851562 415.007812 L 281.960938 414.835938 C 282.09375 413.679688 282.585938 412.765625 283.429688 412.085938 C 284.273438 411.398438 285.355469 411.054688 286.679688 411.054688 C 288.136719 411.054688 289.257812 411.398438 290.039062 412.085938 C 290.820312 412.765625 291.210938 413.738281 291.210938 415.007812 C 291.210938 415.570312 291.078125 416.128906 290.820312 416.679688 C 290.570312 417.234375 290.1875 417.785156 289.679688 418.335938 C 289.179688 418.890625 288.214844 419.75 286.789062 420.914062 C 285.996094 421.5625 285.367188 422.144531 284.898438 422.664062 C 284.4375 423.175781 284.109375 423.671875 283.914062 424.148438 L 291.445312 424.148438 L 291.445312 425.710938 Z M 281.882812 425.710938 "/>
<path style=" stroke:none;fill-rule:nonzero;fill:rgb(0%,0%,0%);fill-opacity:1;" d="M 274.765625 419.304688 L 279.890625 419.304688 L 279.890625 420.945312 L 274.765625 420.945312 Z M 274.765625 419.304688 "/>
<path style=" stroke:none;fill-rule:nonzero;fill:rgb(0%,0%,0%);fill-opacity:1;" d="M 281.882812 425.710938 L 281.882812 424.414062 C 282.226562 423.613281 282.648438 422.90625 283.148438 422.289062 C 283.65625 421.675781 284.1875 421.125 284.742188 420.632812 C 285.292969 420.132812 285.839844 419.675781 286.382812 419.257812 C 286.921875 418.832031 287.414062 418.40625 287.851562 417.976562 C 288.289062 417.550781 288.640625 417.109375 288.914062 416.648438 C 289.183594 416.179688 289.320312 415.65625 289.320312 415.070312 C 289.320312 414.28125 289.085938 413.664062 288.617188 413.226562 C 288.15625 412.789062 287.511719 412.570312 286.679688 412.570312 C 285.898438 412.570312 285.25 412.785156 284.742188 413.210938 C 284.230469 413.640625 283.933594 414.238281 283.851562 415.007812 L 281.960938 414.835938 C 282.09375 413.679688 282.585938 412.765625 283.429688 412.085938 C 284.273438 411.398438 285.355469 411.054688 286.679688 411.054688 C 288.136719 411.054688 289.257812 411.398438 290.039062 412.085938 C 290.820312 412.765625 291.210938 413.738281 291.210938 415.007812 C 291.210938 415.570312 291.078125 416.128906 290.820312 416.679688 C 290.570312 417.234375 290.1875 417.785156 289.679688 418.335938 C 289.179688 418.890625 288.214844 419.75 286.789062 420.914062 C 285.996094 421.5625 285.367188 422.144531 284.898438 422.664062 C 284.4375 423.175781 284.109375 423.671875 283.914062 424.148438 L 291.445312 424.148438 L 291.445312 425.710938 Z M 281.882812 425.710938 "/>
<path style="fill:none;stroke-width:4.5;stroke-linecap:butt;stroke-linejoin:miter;stroke:rgb(100%,100%,100%);stroke-opacity:1;stroke-miterlimit:2;" d="M 281.886719 185.710938 L 281.886719 184.414062 C 282.230469 183.613281 282.652344 182.90625 283.152344 182.289062 C 283.660156 181.675781 284.191406 181.125 284.746094 180.632812 C 285.296875 180.132812 285.84375 179.675781 286.386719 179.257812 C 286.925781 178.832031 287.417969 178.40625 287.855469 177.976562 C 288.292969 177.550781 288.644531 177.109375 288.917969 176.648438 C 289.1875 176.179688 289.324219 175.65625 289.324219 175.070312 C 289.324219 174.28125 289.089844 173.664062 288.621094 173.226562 C 288.160156 172.789062 287.515625 172.570312 286.683594 172.570312 C 285.902344 172.570312 285.253906 172.785156 284.746094 173.210938 C 284.234375 173.640625 283.9375 174.238281 283.855469 175.007812 L 281.964844 174.835938 C 282.097656 173.679688 282.589844 172.765625 283.433594 172.085938 C 284.277344 171.398438 285.359375 171.054688 286.683594 171.054688 C 288.140625 171.054688 289.261719 171.398438 290.042969 172.085938 C 290.824219 172.765625 291.214844 173.738281 291.214844 175.007812 C 291.214844 175.570312 291.082031 176.128906 290.824219 176.679688 C 290.574219 177.234375 290.191406 177.785156 289.683594 178.335938 C 289.183594 178.890625 288.21875 179.75 286.792969 180.914062 C 286 181.5625 285.371094 182.144531 284.902344 182.664062 C 284.441406 183.175781 284.113281 183.671875 283.917969 184.148438 L 291.449219 184.148438 L 291.449219 185.710938 Z M 281.886719 185.710938 "/>
<path style=" stroke:none;fill-rule:nonzero;fill:rgb(0%,0%,0%);fill-opacity:1;" d="M 281.886719 185.710938 L 281.886719 184.414062 C 282.230469 183.613281 282.652344 182.90625 283.152344 182.289062 C 283.660156 181.675781 284.191406 181.125 284.746094 180.632812 C 285.296875 180.132812 285.84375 179.675781 286.386719 179.257812 C 286.925781 178.832031 287.417969 178.40625 287.855469 177.976562 C 288.292969 177.550781 288.644531 177.109375 288.917969 176.648438 C 289.1875 176.179688 289.324219 175.65625 289.324219 175.070312 C 289.324219 174.28125 289.089844 173.664062 288.621094 173.226562 C 288.160156 172.789062 287.515625 172.570312 286.683594 172.570312 C 285.902344 172.570312 285.253906 172.785156 284.746094 173.210938 C 284.234375 173.640625 283.9375 174.238281 283.855469 175.007812 L 281.964844 174.835938 C 282.097656 173.679688 282.589844 172.765625 283.433594 172.085938 C 284.277344 171.398438 285.359375 171.054688 286.683594 171.054688 C 288.140625 171.054688 289.261719 171.398438 290.042969 172.085938 C 290.824219 172.765625 291.214844 173.738281 291.214844 175.007812 C 291.214844 175.570312 291.082031 176.128906 290.824219 176.679688 C 290.574219 177.234375 290.191406 177.785156 289.683594 178.335938 C 289.183594 178.890625 288.21875 179.75 286.792969 180.914062 C 286 181.5625 285.371094 182.144531 284.902344 182.664062 C 284.441406 183.175781 284.113281 183.671875 283.917969 184.148438 L 291.449219 184.148438 L 291.449219 185.710938 Z M 281.886719 185.710938 "/>
<path style="fill:none;stroke-width:4.5;stroke-linecap:butt;stroke-linejoin:miter;stroke:rgb(100%,100%,100%);stroke-opacity:1;stroke-miterlimit:2;" d="M 289.855469 62.445312 L 289.855469 65.710938 L 288.121094 65.710938 L 288.121094 62.445312 L 281.308594 62.445312 L 281.308594 61.007812 L 287.917969 51.257812 L 289.855469 51.257812 L 289.855469 60.976562 L 291.886719 60.976562 L 291.886719 62.445312 Z M 288.121094 53.351562 C 288.097656 53.382812 288 53.5625 287.824219 53.882812 C 287.644531 54.207031 287.515625 54.4375 287.433594 54.570312 L 283.730469 60.023438 L 283.167969 60.773438 L 283.011719 60.976562 L 288.121094 60.976562 Z M 288.121094 53.351562 "/>
<path style=" stroke:none;fill-rule:nonzero;fill:rgb(0%,0%,0%);fill-opacity:1;" d="M 289.855469 62.445312 L 289.855469 65.710938 L 288.121094 65.710938 L 288.121094 62.445312 L 281.308594 62.445312 L 281.308594 61.007812 L 287.917969 51.257812 L 289.855469 51.257812 L 289.855469 60.976562 L 291.886719 60.976562 L 291.886719 62.445312 Z M 288.121094 53.351562 C 288.097656 53.382812 288 53.5625 287.824219 53.882812 C 287.644531 54.207031 287.515625 54.4375 287.433594 54.570312 L 283.730469 60.023438 L 283.167969 60.773438 L 283.011719 60.976562 L 288.121094 60.976562 Z M 288.121094 53.351562 "/>
<path style="fill:none;stroke-width:3.75;stroke-linecap:round;stroke-linejoin:round;stroke:rgb(78.038025%,26.66626%,25.097656%);stroke-opacity:0.9;stroke-miterlimit:10;" d="M -0.75 298.847656 L 50.8125 298.308594 L 86.699219 297.5625 L 114.824219 296.597656 L 138.261719 295.410156 L 158.625 293.996094 L 176.933594 292.335938 L 193.929688 290.40625 L 210.039062 288.1875 L 225.863281 285.605469 L 241.828125 282.601562 L 258.820312 278.992188 L 278.597656 274.363281 L 348.910156 257.5 L 365.605469 254.167969 L 381.574219 251.386719 L 397.539062 249.011719 L 413.945312 246.976562 L 431.230469 245.238281 L 449.980469 243.75 L 470.785156 242.503906 L 494.660156 241.476562 L 523.078125 240.65625 L 558.820312 240.03125 L 599.25 239.652344 "/>
<path style="fill:none;stroke-width:3.75;stroke-linecap:round;stroke-linejoin:round;stroke:rgb(17.64679%,43.920898%,70.195007%);stroke-opacity:0.9;stroke-miterlimit:10;" d="M -0.75 299.25 L 299.398438 299.101562 L 599.25 -0.75 "/>
<path style=" stroke:none;fill-rule:nonzero;fill:rgb(17.254639%,43.920898%,70.195007%);fill-opacity:0.901961;" d="M 465.039062 69.867188 C 464.734375 69.691406 464.40625 69.566406 464.054688 69.492188 C 463.710938 69.410156 463.324219 69.367188 462.898438 69.367188 C 461.40625 69.367188 460.261719 69.851562 459.460938 70.820312 C 458.65625 71.789062 458.257812 73.1875 458.257812 75.007812 L 458.257812 83.492188 L 455.601562 83.492188 L 455.601562 67.398438 L 458.257812 67.398438 L 458.257812 69.898438 C 458.820312 68.921875 459.542969 68.195312 460.429688 67.726562 C 461.324219 67.25 462.40625 67.007812 463.679688 67.007812 C 463.867188 67.007812 464.070312 67.019531 464.289062 67.039062 C 464.507812 67.0625 464.75 67.097656 465.023438 67.148438 Z M 465.039062 69.867188 "/>
<path style=" stroke:none;fill-rule:nonzero;fill:rgb(17.254639%,43.920898%,70.195007%);fill-opacity:0.901961;" d="M 474.15625 61.148438 C 472.875 63.359375 471.921875 65.539062 471.296875 67.695312 C 470.671875 69.851562 470.359375 72.035156 470.359375 74.242188 C 470.359375 76.460938 470.671875 78.660156 471.296875 80.835938 C 471.929688 83.003906 472.882812 85.179688 474.15625 87.367188 L 471.859375 87.367188 C 470.421875 85.117188 469.34375 82.910156 468.625 80.742188 C 467.914062 78.566406 467.5625 76.398438 467.5625 74.242188 C 467.5625 72.109375 467.914062 69.960938 468.625 67.804688 C 469.332031 65.640625 470.410156 63.421875 471.859375 61.148438 Z M 474.15625 61.148438 "/>
<path style=" stroke:none;fill-rule:nonzero;fill:rgb(17.254639%,43.920898%,70.195007%);fill-opacity:0.901961;" d="M 492.675781 67.398438 L 486.847656 75.226562 L 492.972656 83.492188 L 489.863281 83.492188 L 485.175781 77.164062 L 480.488281 83.492188 L 477.363281 83.492188 L 483.613281 75.070312 L 477.894531 67.398438 L 481.019531 67.398438 L 485.285156 73.132812 L 489.550781 67.398438 Z M 492.675781 67.398438 "/>
<path style=" stroke:none;fill-rule:nonzero;fill:rgb(17.254639%,43.920898%,70.195007%);fill-opacity:0.901961;" d="M 496.300781 61.148438 L 498.597656 61.148438 C 500.035156 63.421875 501.105469 65.640625 501.816406 67.804688 C 502.535156 69.960938 502.894531 72.109375 502.894531 74.242188 C 502.894531 76.398438 502.535156 78.566406 501.816406 80.742188 C 501.105469 82.910156 500.035156 85.117188 498.597656 87.367188 L 496.300781 87.367188 C 497.570312 85.179688 498.519531 83.003906 499.144531 80.835938 C 499.777344 78.660156 500.097656 76.460938 500.097656 74.242188 C 500.097656 72.035156 499.777344 69.851562 499.144531 67.695312 C 498.519531 65.539062 497.570312 63.359375 496.300781 61.148438 Z M 496.300781 61.148438 "/>
<path style=" stroke:none;fill-rule:nonzero;fill:rgb(77.645874%,26.66626%,24.705505%);fill-opacity:0.901961;" d="M 524.882812 217.855469 L 524.882812 220.355469 C 524.140625 219.972656 523.367188 219.683594 522.554688 219.496094 C 521.75 219.308594 520.917969 219.214844 520.054688 219.214844 C 518.742188 219.214844 517.757812 219.417969 517.101562 219.824219 C 516.445312 220.222656 516.117188 220.820312 516.117188 221.621094 C 516.117188 222.238281 516.351562 222.722656 516.820312 223.074219 C 517.289062 223.417969 518.234375 223.746094 519.664062 224.058594 L 520.554688 224.261719 C 522.4375 224.667969 523.777344 225.242188 524.570312 225.980469 C 525.359375 226.710938 525.757812 227.730469 525.757812 229.042969 C 525.757812 230.535156 525.164062 231.714844 523.976562 232.589844 C 522.789062 233.464844 521.164062 233.902344 519.101562 233.902344 C 518.234375 233.902344 517.335938 233.8125 516.398438 233.636719 C 515.460938 233.472656 514.476562 233.222656 513.445312 232.886719 L 513.445312 230.152344 C 514.421875 230.664062 515.386719 231.050781 516.335938 231.308594 C 517.28125 231.558594 518.21875 231.683594 519.148438 231.683594 C 520.398438 231.683594 521.355469 231.472656 522.023438 231.042969 C 522.699219 230.617188 523.039062 230.019531 523.039062 229.246094 C 523.039062 228.527344 522.792969 227.976562 522.304688 227.589844 C 521.824219 227.207031 520.761719 226.835938 519.117188 226.480469 L 518.210938 226.261719 C 516.5625 225.917969 515.375 225.394531 514.648438 224.683594 C 513.917969 223.964844 513.554688 222.980469 513.554688 221.730469 C 513.554688 220.222656 514.089844 219.054688 515.164062 218.230469 C 516.246094 217.410156 517.773438 216.996094 519.742188 216.996094 C 520.71875 216.996094 521.636719 217.070312 522.492188 217.214844 C 523.355469 217.351562 524.152344 217.566406 524.882812 217.855469 Z M 524.882812 217.855469 "/>
<path style=" stroke:none;fill-rule:nonzero;fill:rgb(77.645874%,26.66626%,24.705505%);fill-opacity:0.901961;" d="M 536.316406 211.136719 C 535.035156 213.347656 534.082031 215.527344 533.457031 217.683594 C 532.832031 219.839844 532.519531 222.023438 532.519531 224.230469 C 532.519531 226.449219 532.832031 228.648438 533.457031 230.824219 C 534.089844 232.992188 535.042969 235.167969 536.316406 237.355469 L 534.019531 237.355469 C 532.582031 235.105469 531.503906 232.898438 530.785156 230.730469 C 530.074219 228.554688 529.722656 226.386719 529.722656 224.230469 C 529.722656 222.097656 530.074219 219.949219 530.785156 217.792969 C 531.492188 215.628906 532.570312 213.410156 534.019531 211.136719 Z M 536.316406 211.136719 "/>
<path style=" stroke:none;fill-rule:nonzero;fill:rgb(77.645874%,26.66626%,24.705505%);fill-opacity:0.901961;" d="M 554.832031 217.386719 L 549.003906 225.214844 L 555.128906 233.480469 L 552.019531 233.480469 L 547.332031 227.152344 L 542.644531 233.480469 L 539.519531 233.480469 L 545.769531 225.058594 L 540.050781 217.386719 L 543.175781 217.386719 L 547.441406 223.121094 L 551.707031 217.386719 Z M 554.832031 217.386719 "/>
<path style=" stroke:none;fill-rule:nonzero;fill:rgb(77.645874%,26.66626%,24.705505%);fill-opacity:0.901961;" d="M 558.457031 211.136719 L 560.753906 211.136719 C 562.191406 213.410156 563.261719 215.628906 563.972656 217.792969 C 564.691406 219.949219 565.050781 222.097656 565.050781 224.230469 C 565.050781 226.386719 564.691406 228.554688 563.972656 230.730469 C 563.261719 232.898438 562.191406 235.105469 560.753906 237.355469 L 558.457031 237.355469 C 559.726562 235.167969 560.675781 232.992188 561.300781 230.824219 C 561.933594 228.648438 562.253906 226.449219 562.253906 224.230469 C 562.253906 222.023438 561.933594 219.839844 561.300781 217.683594 C 560.675781 215.527344 559.726562 213.347656 558.457031 211.136719 Z M 558.457031 211.136719 "/>
</g>
</svg>
